<svg fill="none" xmlns="http://www.w3.org/2000/svg" viewBox="16 10 42 42"> <g filter="url(#filter0_d_11_240)"> <rect x="16" y="10" width="42" height="42" rx="8" fill="url(#paint0_linear_11_240)" shape-rendering="crispEdges"></rect> <path d="M31.8059 23.8591H34.5417V32.9869C34.5417 33.8307 34.3521 34.5636 33.9729 35.1858C33.5979 35.808 33.0758 36.2874 32.4068 36.624C31.7378 36.9607 30.9601 37.129 30.0737 37.129C29.2854 37.129 28.5694 36.9905 27.926 36.7135C27.2868 36.4322 26.7797 36.0061 26.4047 35.4351C26.0297 34.8598 25.8443 34.1375 25.8486 33.2682H28.6035C28.6121 33.6133 28.6824 33.9095 28.8145 34.1567C28.9508 34.3996 29.1362 34.5871 29.3706 34.7192C29.6092 34.847 29.8905 34.9109 30.2143 34.9109C30.5552 34.9109 30.8429 34.8385 31.0773 34.6936C31.3159 34.5445 31.497 34.3271 31.6206 34.0416C31.7442 33.7561 31.8059 33.4045 31.8059 32.9869V23.8591ZM47.7797 23.8591V36.95H45.389L39.6937 28.7106H39.5979V36.95H36.8301V23.8591H39.2591L44.9096 32.092H45.0247V23.8591H47.7797Z" fill="white"></path> </g> <defs> <filter id="filter0_d_11_240" x="0" y="0" width="74" height="74" filterUnits="userSpaceOnUse" color-interpolation-filters="sRGB"> <feFlood flood-opacity="0" result="BackgroundImageFix"></feFlood> <feColorMatrix in="SourceAlpha" type="matrix" values="0 0 0 0 0 0 0 0 0 0 0 0 0 0 0 0 0 0 127 0" result="hardAlpha"></feColorMatrix> <feOffset dy="6"></feOffset> <feGaussianBlur stdDeviation="8"></feGaussianBlur> <feComposite in2="hardAlpha" operator="out"></feComposite> <feColorMatrix type="matrix" values="0 0 0 0 0 0 0 0 0 0.470588 0 0 0 0 0.831373 0 0 0 0.12 0"></feColorMatrix> <feBlend mode="normal" in2="BackgroundImageFix" result="effect1_dropShadow_11_240"></feBlend> <feBlend mode="normal" in="SourceGraphic" in2="effect1_dropShadow_11_240" result="shape"></feBlend> </filter> <linearGradient id="paint0_linear_11_240" x1="16" y1="10" x2="58" y2="52" gradientUnits="userSpaceOnUse"> <stop stop-color="#0078D4"></stop> <stop offset="1" stop-color="#00A6FF"></stop> </linearGradient> </defs> </svg>